<?xml version="1.0" encoding="UTF-8" standalone="no"?>
<svg
   xmlns:dc="http://purl.org/dc/elements/1.1/"
   xmlns:cc="http://creativecommons.org/ns#"
   xmlns:rdf="http://www.w3.org/1999/02/22-rdf-syntax-ns#"
   xmlns:svg="http://www.w3.org/2000/svg"
   xmlns="http://www.w3.org/2000/svg"
   width="512"
   height="512"
   viewBox="0 0 512 512"
   version="1.1"
>
  <rect
     id="rect2"
     height="512"
     width="512"
     y="0"
     x="0"
     fill="#0aaae6" />
  <path
     id="path4"
     d="m 270.09317,155.30629 v -13.75594 h 56.37117 l 86.21606,127.10543 14.92245,24.75999 1.10464,-0.5504 -0.55254,-29.71252 -1.65738,-99.04294 -27.08095,-9.35402 V 140.99995 H 468.5 v 13.75594 l -18.79091,9.35402 -0.55148,205.78934 h -23.21236 l -96.16346,-146.91385 -14.92246,-24.76073 -1.10548,0.5504 0.55252,29.71294 1.10549,119.40208 29.29119,9.35381 v 13.75615 H 270.0937 V 357.244 l 21.55391,-9.35391 1.10485,-184.33015 z M 43.5,370.44976 h 86.76849 V 356.6936 l -21.55402,-6.60341 v -86.38694 h 80.68957 v 86.38694 l -21.55391,6.60341 v 13.75616 h 86.76784 V 356.6936 l -21.55401,-6.60341 V 162.45935 l 21.55401,-6.60287 v -13.75594 h -87.32069 v 13.75594 l 21.55401,6.60287 v 80.335 h -80.13682 v -80.335 l 21.55402,-6.60287 V 142.10054 H 43.5 v 13.75594 l 21.55391,6.60287 V 350.64049 L 43.5,357.2439 Z"
     style="fill:#ffffff;stroke-width:10.66666126" />
</svg>
